<?xml version="1.0" encoding="UTF-8"?><svg id="a" xmlns="http://www.w3.org/2000/svg" viewBox="0 0 638.52 132.58"><defs><style>.b{fill:#fff;}</style></defs><path class="b" d="M633.41,104.35c-.68,.17-1.74,.38-3.16,.64-1.43,.26-2.67,.38-3.74,.38-1.53,0-2.79-.22-3.77-.67-.98-.45-1.7-1.13-2.17-2.04-.47-.92-.7-2.05-.7-3.42V58.24h16.86v-25.54h-16.86V9.2h-35.25v23.5h-12.52v15.39c-3.65-4.78-8.35-8.61-14.14-11.46-7.05-3.47-15.38-5.21-25-5.21-10.64,0-19.76,2.12-27.33,6.35-7.58,4.24-13.39,10.15-17.43,17.75-1.1,2.08-2.04,4.25-2.85,6.51-.21-3.96-1.23-7.66-3.05-11.11-2.07-3.9-5.06-7.3-8.97-10.22-3.92-2.92-8.66-5.19-14.24-6.83-5.58-1.64-11.88-2.46-18.9-2.46-9.75,0-17.88,1.52-24.4,4.57-3.97,1.85-7.34,4.08-10.15,6.68v-9.9c-1.4-.43-2.86-.76-4.37-.99-1.51-.23-3.03-.35-4.57-.35-5.24,0-9.8,1.6-13.7,4.79-3.9,3.19-6.74,8.24-8.53,15.14h-1.02v-18.65h-48.85V9.2h-35.25v23.5h-12.52v13.47c-1.76-2.18-3.88-4.16-6.35-5.93-8.2-5.88-19.38-8.81-33.56-8.81-9.32,0-17.38,1.25-24.17,3.74-6.79,2.49-12.01,6.11-15.65,10.86-2.66,3.46-4.32,7.49-5.02,12.05-.63-1.83-1.33-3.57-2.13-5.19-3.68-7.41-8.45-12.84-14.31-16.29-5.85-3.45-12.02-5.17-18.49-5.17-4.85,0-9.11,.84-12.77,2.52-3.66,1.68-6.73,3.92-9.2,6.71-2.47,2.79-4.34,5.84-5.62,9.16h-.51V0h-35.25V60.22c-.39-3.28-1.36-6.38-2.9-9.29-2.07-3.9-5.06-7.3-8.97-10.22-3.92-2.92-8.66-5.19-14.24-6.83-5.58-1.64-11.88-2.46-18.9-2.46-9.75,0-17.88,1.52-24.4,4.57-6.51,3.04-11.46,7.09-14.85,12.13-3.38,5.04-5.29,10.55-5.72,16.51H36.27c.42-3.02,1.69-5.27,3.8-6.74s4.84-2.2,8.21-2.2c3.07,0,5.58,.68,7.54,2.04,1.96,1.36,2.94,3.32,2.94,5.88v.26c0,1.87-.75,3.37-2.24,4.5-1.49,1.13-3.91,2-7.25,2.62-3.34,.62-7.76,1.14-13.25,1.57-5.07,.38-9.78,1.21-14.15,2.49-4.36,1.28-8.19,3.13-11.46,5.56-3.28,2.43-5.83,5.55-7.66,9.36-1.83,3.81-2.75,8.4-2.75,13.76,0,6.51,1.36,11.88,4.09,16.09,2.72,4.21,6.48,7.36,11.27,9.42s10.31,3.1,16.57,3.1c4.26,0,8.16-.51,11.72-1.53,3.55-1.02,6.73-2.66,9.52-4.92,2.79-2.26,5.16-5.21,7.12-8.88h.77v13.79h67.75v-16.09h.77c1.36,3.32,3.31,6.29,5.84,8.91,2.53,2.62,5.6,4.68,9.2,6.19,3.6,1.51,7.7,2.27,12.29,2.27,6.98,0,13.4-1.83,19.25-5.49,5.85-3.66,10.54-9.22,14.05-16.67,.37-.79,.71-1.6,1.04-2.43,2.24,6.28,6.34,11.58,12.3,15.91,8.45,6.13,20.17,9.2,35.16,9.2,9.07,0,17.15-1.39,24.24-4.18s12.69-6.75,16.8-11.88c4.11-5.13,6.18-11.19,6.23-18.17-.04-7.24-2.52-13.02-7.44-17.34-4.92-4.32-12.4-7.4-22.45-9.23l-19.92-3.58c-3.75-.68-6.27-1.64-7.57-2.87-1.3-1.23-1.93-2.58-1.88-4.02-.04-2.04,1.02-3.62,3.19-4.73,2.17-1.11,4.77-1.66,7.79-1.66,2.34,0,4.48,.39,6.42,1.18,1.94,.79,3.52,1.91,4.76,3.35,1.23,1.45,1.94,3.17,2.11,5.17h32.44c-.09-2.24-.37-4.36-.83-6.39h6.76v44.32c-.09,6.86,1.25,12.56,4.02,17.12,2.77,4.56,6.9,7.89,12.39,10s12.28,2.95,20.37,2.52c4-.21,7.46-.66,10.38-1.34,.98-.23,1.88-.44,2.71-.65v.59h35.25v-51.09c0-3.75,.79-7.01,2.36-9.8,1.57-2.79,3.74-4.96,6.48-6.51,2.75-1.55,5.84-2.33,9.29-2.33,.92,0,1.94,.04,3.05,.11-.2,1.14-.36,2.29-.44,3.46h32.44c.43-3.02,1.69-5.27,3.8-6.74s4.84-2.2,8.21-2.2c3.07,0,5.58,.68,7.54,2.04,1.96,1.36,2.94,3.32,2.94,5.88v.26c0,1.87-.75,3.37-2.23,4.5-1.49,1.13-3.91,2-7.25,2.62-3.34,.62-7.76,1.14-13.25,1.57-5.07,.38-9.78,1.21-14.15,2.49-4.37,1.28-8.19,3.13-11.46,5.56s-5.83,5.55-7.66,9.36c-1.83,3.81-2.75,8.4-2.75,13.76,0,6.51,1.36,11.88,4.09,16.09s6.48,7.36,11.27,9.42c4.79,2.06,10.31,3.1,16.57,3.1,4.26,0,8.16-.51,11.72-1.53s6.73-2.66,9.52-4.92c2.79-2.26,5.16-5.21,7.12-8.88h.77v13.79h32.95v-28.69c.79,2.21,1.72,4.34,2.8,6.37,4.04,7.6,9.86,13.52,17.43,17.75,7.58,4.24,16.69,6.35,27.33,6.35,9.71,0,18.06-1.75,25.07-5.24,7-3.49,12.42-8.44,16.25-14.85,3.83-6.41,5.81-13.93,5.94-22.58h-32.7c-.26,3.41-1.01,6.29-2.27,8.65-1.26,2.36-2.88,4.15-4.88,5.36-2,1.21-4.3,1.82-6.9,1.82-3.07,0-5.75-.88-8.05-2.65-2.3-1.77-4.09-4.43-5.36-7.98s-1.92-8.01-1.92-13.38,.64-9.82,1.92-13.38c1.28-3.55,3.07-6.22,5.36-7.98,2.3-1.77,4.98-2.65,8.05-2.65,3.92,0,7.12,1.35,9.61,4.06,2.49,2.7,3.97,6.63,4.44,11.78h32.7c-.03-5.58-.9-10.69-2.57-15.33h6.97v44.32c-.09,6.86,1.25,12.56,4.02,17.12,2.77,4.56,6.9,7.89,12.39,10s12.28,2.95,20.37,2.52c4-.21,7.46-.66,10.38-1.34,2.92-.68,5.16-1.25,6.74-1.72l-5.11-24.78ZM59.01,96.05c0,2.98-.75,5.51-2.24,7.6-1.49,2.09-3.42,3.68-5.78,4.79-2.36,1.11-4.89,1.66-7.57,1.66-2.98,0-5.43-.72-7.34-2.17-1.92-1.45-2.87-3.53-2.87-6.26,0-1.7,.42-3.25,1.25-4.63s2.11-2.55,3.83-3.51c1.72-.96,3.95-1.65,6.67-2.08,1.41-.21,2.76-.45,4.06-.7,1.3-.25,2.53-.53,3.7-.83,1.17-.3,2.28-.62,3.32-.96,1.04-.34,2.03-.7,2.97-1.09v8.17Zm98.37-1.82c-1.21,3.47-2.96,6.13-5.24,7.98-2.28,1.85-5.04,2.78-8.27,2.78s-6.01-.95-8.33-2.84c-2.32-1.89-4.11-4.58-5.36-8.05-1.26-3.47-1.88-7.59-1.88-12.36s.63-9.01,1.88-12.48c1.26-3.47,3.04-6.13,5.36-7.98,2.32-1.85,5.1-2.78,8.33-2.78s5.99,.93,8.27,2.78c2.28,1.85,4.02,4.51,5.24,7.98,1.21,3.47,1.82,7.63,1.82,12.48s-.61,9.02-1.82,12.49Zm81.58,1.05c3.83,.68,6.65,1.58,8.46,2.68,1.81,1.11,2.74,2.6,2.78,4.47-.04,2.04-1.12,3.62-3.23,4.73-2.11,1.11-4.78,1.66-8.01,1.66-4,0-7.31-.84-9.93-2.52-2.62-1.68-4.16-4.08-4.63-7.18h-30.64c1.13-5.17,1.71-10.95,1.71-17.37,0-1.41-.03-2.79-.08-4.14,1.03,1.67,2.26,3.23,3.72,4.66,4.98,4.9,12.47,8.22,22.48,9.96l17.37,3.07Zm99.17,9.07c-.68,.17-1.74,.38-3.16,.64-1.43,.26-2.67,.38-3.74,.38-1.53,0-2.79-.22-3.77-.67-.98-.45-1.7-1.13-2.17-2.04-.47-.92-.7-2.05-.7-3.42V58.24h14.62v51.33l-1.08-5.22Zm112.26-8.3c0,2.98-.75,5.51-2.24,7.6-1.49,2.09-3.42,3.68-5.78,4.79-2.36,1.11-4.89,1.66-7.57,1.66-2.98,0-5.43-.72-7.34-2.17s-2.87-3.53-2.87-6.26c0-1.7,.42-3.25,1.25-4.63,.83-1.38,2.11-2.55,3.83-3.51,1.72-.96,3.95-1.65,6.67-2.08,1.41-.21,2.76-.45,4.06-.7,1.3-.25,2.53-.53,3.7-.83,1.17-.3,2.28-.62,3.32-.96,1.04-.34,2.03-.7,2.97-1.09v8.17Z"/></svg>